HIERARCHY
ROOT Hips
{
  OFFSET 40.9192 92.6879 18.85
  CHANNELS 6 Xposition Yposition Zposition Zrotation Xrotation Yrotation
  JOINT LeftUpLeg
  {
    OFFSET 8.64259 1.95398 -2.38835
    CHANNELS 3 Zrotation Xrotation Yrotation
    JOINT LeftLeg
    {
      OFFSET 43.7702 0 0
      CHANNELS 3 Zrotation Xrotation Yrotation
      JOINT LeftFoot
      {
        OFFSET 40.6238 0 0
        CHANNELS 3 Zrotation Xrotation Yrotation
        JOINT LeftToeBase
        {
          OFFSET 12.7242 0 0
          CHANNELS 3 Zrotation Xrotation Yrotation
          End Site
          {
            OFFSET 0 0 0
          }
        }
      }
    }
  }
  JOINT RightUpLeg
  {
    OFFSET -8.2249 1.95398 -2.59336
    CHANNELS 3 Zrotation Xrotation Yrotation
    JOINT RightLeg
    {
      OFFSET 43.5653 0 0
      CHANNELS 3 Zrotation Xrotation Yrotation
      JOINT RightFoot
      {
        OFFSET 40.6238 0 0
        CHANNELS 3 Zrotation Xrotation Yrotation
        JOINT RightToeBase
        {
          OFFSET 12.7242 0 0
          CHANNELS 3 Zrotation Xrotation Yrotation
          End Site
          {
            OFFSET 0 0 0
          }
        }
      }
    }
  }
  JOINT Spine
  {
    OFFSET 0.165834 0.87714 6.61349
    CHANNELS 3 Zrotation Xrotation Yrotation
    JOINT Spine1
    {
      OFFSET 7.38963 1.71661e-005 0
      CHANNELS 3 Zrotation Xrotation Yrotation
      JOINT Spine2
      {
        OFFSET 11.9445 1.14441e-005 0
        CHANNELS 3 Zrotation Xrotation Yrotation
        JOINT Spine3
        {
          OFFSET 14.7254 4.19617e-005 0
          CHANNELS 3 Zrotation Xrotation Yrotation
          JOINT Spine4
          {
            OFFSET 10.9679 0 0
            CHANNELS 3 Zrotation Xrotation Yrotation
            JOINT RightShoulder
            {
              OFFSET 2.46616 -1.6653 3.69651
              CHANNELS 3 Zrotation Xrotation Yrotation
              JOINT RightArm
              {
                OFFSET 13.0012 0 0
                CHANNELS 3 Zrotation Xrotation Yrotation
                JOINT RightForeArm
                {
                  OFFSET 28.7848 1.52588e-005 0
                  CHANNELS 3 Zrotation Xrotation Yrotation
                  JOINT RightHand
                  {
                    OFFSET 26.5688 1.52588e-005 0
                    CHANNELS 3 Zrotation Xrotation Yrotation
                    End Site
                    {
                      OFFSET 0 0 0
                    }
                  }
                }
              }
            }
            JOINT LeftShoulder
            {
              OFFSET 2.38034 -1.29275 -3.7523
              CHANNELS 3 Zrotation Xrotation Yrotation
              JOINT LeftArm
              {
                OFFSET 16.3182 6.10351e-005 0
                CHANNELS 3 Zrotation Xrotation Yrotation
                JOINT LeftForeArm
                {
                  OFFSET 27.0901 0 0
                  CHANNELS 3 Zrotation Xrotation Yrotation
                  JOINT LeftHand
                  {
                    OFFSET 24.5451 1.52588e-005 0
                    CHANNELS 3 Zrotation Xrotation Yrotation
                    End Site
                    {
                      OFFSET 0 0 0
                    }
                  }
                }
              }
            }
            JOINT Neck
            {
              OFFSET 5.0226 -0.0266342 0
              CHANNELS 3 Zrotation Xrotation Yrotation
              JOINT Head
              {
                OFFSET 6.69363 2.86102e-005 0
                CHANNELS 3 Zrotation Xrotation Yrotation
                End Site
                {
                  OFFSET 0 0 0
                }
              }
            }
          }
        }
      }
    }
  }
}
MOTION
Frames:	18
Frame Time:	0.0416667
-55.5335 97.4519 47.6333 -137.58 -85.342 -136.911 -170.352 -0.939476 93.4538 -9.15365 5.93583 -2.26934 63.6669 2.64451 2.53433 28.4618 -0.300377 0.453211 172.952 -2.07213 88.6485 -9.36909 -8.07555 -0.401091 64.8973 -2.76416 -1.56409 29.0478 0.089925 -1.23218 0.292566 5.87435 -89.8634 15.1249 0.646744 0.17762 3.45408 0.653937 0.148974 -19.082 0.563462 0.363788 0.930638 0.563456 0.363774 102.002 30.2914 -66.746 37.2306 30.7629 -79.6549 10.3122 38.8871 -43.3757 -16.2346 0.654653 -11.2578 -75.4466 15.14 111.509 -21.0585 -46.6794 -94.5224 -4.30509 -38.0956 -22.1945 19.1423 -1.29483 -10.7027 25.011 -1.56899 -1.47331 0.49118 -0.950184 1.64887 
-55.5477 97.4612 47.6175 -137.439 -85.2583 -136.703 -170.201 -1.02533 93.5918 -9.08597 5.80366 -2.36309 63.9105 2.81692 2.44345 27.9693 -0.667696 0.224161 172.956 -2.0851 88.7003 -9.46658 -8.20159 -0.37535 64.6896 -2.67921 -1.51484 29.6046 0.147587 -1.85399 0.313058 5.86855 -89.851 15.1364 0.693422 0.195354 3.46561 0.701353 0.164641 -19.0706 0.602644 0.394734 0.942032 0.602654 0.394736 102.071 29.8763 -67.1298 36.6295 31.0655 -79.3477 10.2535 38.5214 -43.2524 -16.4361 0.652557 -11.1808 -75.5283 15.5307 111.287 -21.4363 -46.4535 -94.4447 -4.15168 -37.7164 -22.2162 18.9027 -1.30026 -10.8037 25.2412 -1.61059 -1.6034 0.102828 -0.964938 1.30877 
-55.5811 97.4646 47.6046 -137.928 -85.4121 -137.101 -170.291 -0.779428 93.6316 -9.34152 5.85194 -2.22077 63.9823 2.79911 2.28514 28.018 -0.637527 0.298859 173.032 -2.07092 88.828 -9.34429 -8.06416 -0.348634 64.6673 -2.68481 -1.52085 29.32 0.130188 -1.73605 0.319198 5.85859 -89.8537 15.1564 0.704213 0.18813 3.48562 0.711812 0.156947 -19.0507 0.615117 0.391093 0.961986 0.615115 0.391076 101.985 30.3888 -66.7137 36.7081 30.674 -79.3299 10.5822 39.3136 -43.348 -16.2771 0.63794 -11.09 -75.5058 15.2344 111.198 -20.7154 -46.7356 -94.4112 -4.03491 -38.1494 -21.6392 18.9605 -1.34319 -11.0135 25.8591 -1.61621 -1.31501 -0.574958 -1.07607 1.01112 
-55.6065 97.4665 47.6122 -138.864 -85.3758 -137.928 -170.268 -0.832102 93.7525 -9.36058 5.93524 -2.15626 63.9781 2.8175 2.44847 28.0471 -0.557454 -0.210831 173.088 -2.2359 88.9436 -9.19792 -7.88445 -0.323812 64.6736 -2.69959 -1.53086 29.1741 0.103683 -1.37525 0.320434 5.86402 -89.8455 15.1454 0.71075 0.203744 3.47467 0.719029 0.172253 -19.0616 0.616649 0.407939 0.951053 0.616657 0.407941 102.016 30.1676 -66.4929 36.9262 30.5645 -79.8827 10.2795 39.2527 -43.014 -15.9784 0.637205 -11.1775 -75.4931 15.2657 111.305 -20.6071 -46.8432 -94.4728 -3.78483 -37.9364 -21.3532 18.9758 -1.25682 -10.552 25.9076 -1.63781 -1.28131 -0.53838 -1.10701 1.02881 
-55.5883 97.4753 47.643 -137.689 -85.3062 -136.671 -170.219 -0.62601 93.8331 -9.74603 6.03492 -2.18495 63.9256 2.59934 2.41683 28.2332 -0.480146 0.42871 173.008 -2.43778 88.9399 -8.76917 -8.12395 -0.212918 64.4355 -2.66034 -1.51933 29.274 0.121474 -1.60928 0.337196 5.8656 -89.8412 15.1423 0.746044 0.20707 3.47154 0.754429 0.174026 -19.0649 0.649321 0.421724 0.947783 0.649309 0.421712 101.964 30.4791 -66.3464 36.9493 30.4519 -79.8428 10.0665 39.806 -42.7265 -16.1963 0.636015 -11.0987 -75.5425 15.3371 111.035 -20.2433 -47.1546 -94.0764 -3.48799 -37.9547 -20.973 18.418 -1.23774 -10.6176 25.2269 -1.55832 -1.17404 0.198303 -1.07026 0.9782 
-55.6183 97.4755 47.6853 -138.643 -85.2479 -137.616 -170.149 -0.886984 93.883 -9.46541 5.95112 -2.21814 63.9735 2.79962 2.58458 28.1749 -0.435887 -0.399395 172.97 -2.4367 88.9248 -9.02138 -8.18285 -0.182733 64.5444 -2.66828 -1.51935 29.4345 0.140004 -1.82708 0.339018 5.87729 -89.8194 15.1186 0.76055 0.249066 3.44785 0.770775 0.215339 -19.0885 0.650522 0.466133 0.924141 0.650531 0.466128 101.962 30.4778 -66.2474 36.9111 30.5254 -79.7211 10.0449 39.6995 -42.8259 -16.2972 0.618242 -10.8726 -75.5327 15.5741 111.293 -20.3035 -47.085 -94.3315 -3.57984 -38.7935 -20.6867 18.5725 -1.29946 -10.909 25.2878 -1.70512 -1.24057 -0.158466 -1.18922 1.04623 
-55.6036 97.4669 47.7084 -137.754 -85.1851 -136.745 -170.148 -0.900334 93.862 -9.52662 5.755 -2.23609 64.1146 2.85632 2.4249 27.8311 -0.770488 0.160241 173.04 -2.37998 88.9438 -9.14851 -8.15688 -0.260833 64.547 -2.66251 -1.5141 29.504 0.139266 -1.77458 0.345965 5.88368 -89.8145 15.1108 0.776721 0.256481 3.44002 0.787259 0.222039 -19.0964 0.66372 0.478062 0.916269 0.663722 0.478059 101.909 30.8088 -66.2107 36.9134 30.5918 -79.4768 9.86894 39.8054 -42.7954 -15.9675 0.608205 -10.8627 -75.5371 15.7849 111.44 -20.9207 -46.8479 -94.222 -4.06922 -38.5633 -21.5906 19.6838 -1.29079 -10.521 25.247 -1.65489 -1.35437 -0.135093 -1.10018 1.12622 
-55.5767 97.4632 47.7201 -137.309 -85.2161 -136.249 -170.151 -0.85412 93.8802 -9.52952 6.09653 -2.22767 64.075 2.90391 2.75589 27.9624 -0.654178 0.0551877 173.06 -2.29798 88.9877 -9.21819 -7.99794 -0.241263 64.6033 -2.6826 -1.52402 29.3109 0.112919 -1.44381 0.348264 5.88434 -89.8079 15.1226 0.784486 0.268038 3.45186 0.795518 0.233247 -19.0845 0.667655 0.491415 0.928107 0.667654 0.491417 101.948 30.5366 -66.0729 36.5327 30.6464 -79.4805 10.3194 39.8798 -42.9674 -15.9598 0.608001 -10.868 -75.5863 15.9566 111.25 -20.8852 -46.8747 -94.0806 -3.85826 -38.3165 -21.4676 19.1746 -1.27069 -10.5657 25.0011 -1.87521 -1.65645 0.246235 -1.19859 1.42993 
-55.5489 97.4942 47.722 -137.04 -85.2513 -135.962 -170.218 -0.610786 93.8867 -9.83412 5.98084 -2.16542 63.8303 2.47121 2.34048 28.6497 -0.110304 0.0640462 173.058 -2.46415 88.9829 -8.74307 -8.0288 -0.234567 64.3162 -2.62103 -1.49958 29.5364 0.126087 -1.52583 0.349505 5.88293 -89.8125 15.1154 0.784651 0.259028 3.44471 0.795285 0.224235 -19.0917 0.67052 0.482879 0.920926 0.670516 0.482874 101.963 30.4259 -65.924 36.6742 30.5503 -79.7885 10.6741 39.7647 -42.9873 -16.4926 0.65041 -11.1651 -75.5412 15.9156 111.522 -20.9532 -46.8219 -94.5082 -3.6607 -38.4812 -21.1498 19.0666 -1.24556 -10.4659 25.2784 -1.79721 -1.44805 -0.14031 -1.19511 1.39001 
-55.503 97.5028 47.711 -135.268 -85.2492 -134.157 -170.221 -0.648991 93.871 -9.55875 6.14479 -2.18654 63.6009 2.4247 2.70088 28.8002 -0.00123209 0.163997 173.086 -2.18384 89.0122 -9.10251 -8.12293 -0.24516 64.2448 -2.54335 -1.44666 29.5676 0.139811 -1.74216 0.362502 5.8802 -89.8265 15.1334 0.80337 0.227624 3.46267 0.812609 0.192042 -19.0739 0.697809 0.458559 0.938726 0.697814 0.458552 101.975 30.3786 -66.1148 36.247 30.7841 -79.5137 10.6543 39.9707 -43.0507 -16.1656 0.646107 -11.2259 -75.4847 15.5319 111.58 -20.6188 -46.9773 -94.5546 -3.69085 -38.4328 -21.1809 18.6046 -1.18828 -10.2976 25.2501 -1.67924 -0.87281 -0.237588 -1.29882 0.755726 
-55.4923 97.4812 47.7177 -134.854 -85.2338 -133.834 -170.209 -0.620731 93.778 -9.67222 6.15719 -2.26428 63.8407 2.5829 2.76323 28.3512 -0.36722 0.254281 173.064 -2.33756 88.9228 -8.7797 -8.28292 -0.30412 64.5362 -2.69709 -1.53945 29.1462 0.122787 -1.70916 0.367081 5.87581 -89.8118 15.1266 0.819775 0.255054 3.45589 0.830203 0.218719 -19.0807 0.705214 0.489646 0.931979 0.705217 0.489648 101.984 30.3034 -65.9827 36.4291 30.6845 -79.7423 10.523 39.776 -42.9552 -16.0798 0.635531 -11.1342 -75.4817 15.5178 111.589 -20.7454 -46.9317 -94.6686 -3.57006 -38.1766 -21.1505 18.3508 -1.1959 -10.4154 25.1303 -1.74285 -0.97121 -0.478589 -1.32532 0.893739 
-55.4696 97.4806 47.7453 -134.691 -85.3333 -133.674 -170.283 -0.56764 93.73 -9.67581 5.64855 -2.17813 63.9535 2.58488 2.2655 28.2418 -0.442171 0.14314 173.137 -2.25412 88.9598 -8.79638 -8.00949 -0.356269 64.4892 -2.67558 -1.52672 29.1925 0.100895 -1.31746 0.368095 5.87174 -89.8062 15.1246 0.824681 0.266121 3.45388 0.835585 0.229559 -19.0827 0.706571 0.501674 0.929954 0.706568 0.501676 102.001 30.1841 -65.8842 36.3873 30.7766 -79.8311 10.3069 39.6966 -42.6639 -16.1466 0.647178 -11.2322 -75.5087 15.778 111.627 -21.1447 -46.8339 -94.7624 -3.59056 -38.1059 -21.1969 19.2288 -1.20555 -10.2092 25.3353 -1.76438 -1.15532 -0.52564 -1.27709 1.05427 
-55.4184 97.4683 47.7678 -133.314 -85.3461 -132.283 -170.25 -0.542284 93.7099 -9.56515 6.39389 -2.2738 63.8046 2.61885 3.02834 28.3817 -0.375039 0.553642 173.198 -2.21496 88.9896 -8.75583 -8.11583 -0.427925 64.4515 -2.66742 -1.52148 29.3173 0.108961 -1.38448 0.379357 5.86877 -89.808 15.1357 0.845972 0.258945 3.46501 0.856543 0.22146 -19.0717 0.729033 0.501231 0.940956 0.729035 0.50124 102.003 30.1679 -65.8664 36.4311 30.8438 -79.6963 10.4028 39.3855 -42.9298 -16.4376 0.643374 -11.1803 -75.4585 15.6513 111.857 -21.0886 -46.8243 -95.186 -3.27383 -38.0559 -20.734 18.878 -1.19008 -10.2262 25.4783 -1.83654 -1.26486 -0.530654 -1.30891 1.0429 
-55.3844 97.4719 47.805 -133.931 -85.4155 -132.87 -170.261 -0.593804 93.7258 -9.4843 5.90511 -2.22307 63.938 2.66619 2.51249 28.3132 -0.38324 0.122221 173.152 -2.19296 88.9813 -8.80034 -8.0209 -0.361973 64.4557 -2.66003 -1.51664 29.2606 0.11647 -1.53363 0.375782 5.8691 -89.8091 15.1351 0.838344 0.257815 3.46438 0.848889 0.22066 -19.0723 0.722098 0.497867 0.94036 0.722106 0.497868 102.012 30.0674 -65.4659 36.5266 30.6512 -80.2086 10.3646 39.6305 -42.6373 -16.248 0.646218 -11.1873 -75.4972 15.7221 111.656 -20.4631 -47.0817 -94.5935 -3.45055 -38.7479 -20.5209 18.7134 -1.24628 -10.5738 25.6404 -1.83282 -1.14706 -0.798185 -1.34798 0.972466 
-55.3462 97.4781 47.8141 -135.915 -85.4256 -134.842 -170.197 -0.745709 93.758 -9.40177 5.81691 -2.26319 64.1413 2.89044 2.32212 28.0255 -0.620456 0.202217 173.105 -2.24324 88.9445 -8.93882 -7.90978 -0.337121 64.3958 -2.61527 -1.4881 29.4897 0.119442 -1.44172 0.360065 5.87884 -89.8212 15.1156 0.801262 0.239363 3.44493 0.811026 0.20386 -19.0916 0.692281 0.469123 0.921026 0.69228 0.469115 101.961 30.4044 -65.6614 36.6461 30.7139 -79.8705 10.2762 39.3863 -42.7415 -16.4146 0.647546 -11.1484 -75.4421 15.3795 111.735 -20.5556 -47.0257 -94.7917 -3.65191 -38.628 -20.8177 19.0527 -1.24831 -10.4841 25.5757 -1.7905 -0.851211 -0.908722 -1.40882 0.935226 
-55.3299 97.4738 47.8205 -137.003 -85.4157 -135.934 -170.257 -0.826255 93.7034 -9.40061 6.02208 -2.18972 64.1912 3.00632 2.61379 27.8975 -0.714751 0.137035 173.085 -2.31994 88.9208 -8.94924 -7.90862 -0.344536 64.415 -2.63018 -1.49681 29.5621 0.12638 -1.51285 0.347776 5.8749 -89.825 15.1235 0.775064 0.235634 3.45279 0.784683 0.201291 -19.0837 0.668416 0.45769 0.928987 0.66841 0.457688 101.978 30.2678 -65.444 36.6421 30.4933 -80.1807 10.2123 39.2745 -42.9458 -16.5246 0.634701 -10.9764 -75.4396 15.3741 111.746 -20.652 -46.8485 -94.8497 -3.62412 -38.3746 -20.852 18.8908 -1.20529 -10.3036 25.392 -1.74463 -0.84201 -0.844882 -1.37106 0.869971 
-55.2494 97.4833 47.7953 -139.478 -85.4506 -138.356 -170.219 -0.596679 93.7704 -9.8623 6.4832 -2.2452 63.7271 2.58182 2.98176 28.6435 -0.0907328 -0.173959 173.005 -2.49596 88.8886 -8.77589 -7.68955 -0.262131 64.4257 -2.65965 -1.51672 29.2257 0.0869283 -1.06712 0.338722 5.87689 -89.8246 15.1196 0.757345 0.239033 3.44882 0.767126 0.205455 -19.0875 0.650478 0.455593 0.925105 0.650491 0.455599 102.039 29.9165 -65.5951 36.271 30.6948 -79.9934 10.3343 38.9538 -43.0231 -16.5532 0.654685 -11.1717 -75.5327 15.9723 111.631 -20.5724 -46.6371 -94.5367 -3.58434 -38.8928 -20.5806 19.1203 -1.25964 -10.5242 25.2352 -1.83886 -1.18699 -0.866907 -1.3362 1.24165 
-55.2939 97.4836 47.761 -137.965 -85.3099 -136.832 -170.161 -0.756617 93.8078 -9.69777 6.0484 -2.24945 64.184 2.9193 2.49799 28.0698 -0.570995 0.0738906 173.077 -2.3767 88.9423 -8.99494 -7.84997 -0.316479 64.262 -2.57753 -1.4681 29.6437 0.125973 -1.45964 0.361305 5.88724 -89.8303 15.0989 0.799214 0.221569 3.42819 0.80819 0.186177 -19.1084 0.695666 0.451534 0.904245 0.695668 0.451531 101.987 30.1557 -64.9508 36.7408 30.2096 -80.5008 10.2054 39.2139 -42.9672 -16.2934 0.63999 -11.1012 -75.4485 15.568 111.851 -20.5193 -46.7003 -95.0099 -3.573 -38.9046 -20.4621 18.868 -1.25069 -10.5514 25.6029 -1.82507 -0.974684 -1.08083 -1.3935 1.19478 
